HIERARCHY
ROOT SpineBase
{
  OFFSET 0.000000 0.000000 0.000000
  CHANNELS 6 Xposition Yposition Zposition Zrotation Xrotation Yrotation
  JOINT SpineMid
  {
    OFFSET 0.000000 28.471068 0.000000
    CHANNELS 3 Zrotation Xrotation Yrotation
    JOINT SpineShoulder
    {
      OFFSET -0.129887 21.131480 -0.727053
      CHANNELS 3 Zrotation Xrotation Yrotation
      JOINT Neck
      {
        OFFSET -0.084429 6.991296 -0.542804
        CHANNELS 3 Zrotation Xrotation Yrotation
        JOINT Head
        {
          OFFSET -2.620468 13.163802 0.331450
          CHANNELS 3 Zrotation Xrotation Yrotation
          End Site
          {
            OFFSET 0 0 0
          }
        }
      }
      JOINT ShoulderLeft
      {
        OFFSET -13.452331 -4.515967 7.606761
        CHANNELS 3 Zrotation Xrotation Yrotation
        JOINT ElbowLeft
        {
          OFFSET -0.606331 -25.865178 3.889196
          CHANNELS 3 Zrotation Xrotation Yrotation
          JOINT WristLeft
          {
            OFFSET 0.109187 -26.240628 -0.922108
            CHANNELS 3 Zrotation Xrotation Yrotation
            JOINT HandLeft
            {
              OFFSET -0.209931 -2.804263 0.219686
              CHANNELS 3 Zrotation Xrotation Yrotation
              JOINT HandTipLeft
              {
                OFFSET 0.351395 -3.728810 -1.689584
                CHANNELS 3 Zrotation Xrotation Yrotation
                End Site
                {
                  OFFSET 0 0 0
                }
              }
              JOINT ThumbLeft
              {
                OFFSET 1.268234 -1.030947 -3.143674
                CHANNELS 3 Zrotation Xrotation Yrotation
                End Site
                {
                  OFFSET 0 0 0
                }
              }
            }
          }
        }
      }
      JOINT ShoulderRight
      {
        OFFSET 9.791760 -4.197939 -11.628234
        CHANNELS 3 Zrotation Xrotation Yrotation
        JOINT ElbowRight
        {
          OFFSET 6.087997 -22.642709 -2.592301
          CHANNELS 3 Zrotation Xrotation Yrotation
          JOINT WristRight
          {
            OFFSET -0.715516 -19.148780 -4.178494
            CHANNELS 3 Zrotation Xrotation Yrotation
            JOINT HandRight
            {
              OFFSET -1.824956 -7.000111 -1.649331
              CHANNELS 3 Zrotation Xrotation Yrotation
              JOINT HandTipRight
              {
                OFFSET -0.322359 -6.740325 0.565560
                CHANNELS 3 Zrotation Xrotation Yrotation
                End Site
                {
                  OFFSET 0 0 0
                }
              }
              JOINT ThumbRight
              {
                OFFSET 1.388797 -0.949639 -2.452240
                CHANNELS 3 Zrotation Xrotation Yrotation
                End Site
                {
                  OFFSET 0 0 0
                }
              }
            }
          }
        }
      }
    }
  }
  JOINT HipLeft
  {
    OFFSET -5.519113 -0.060425 0.733002
    CHANNELS 3 Zrotation Xrotation Yrotation
    JOINT KneeLeft
    {
      OFFSET 7.715504 -28.013126 7.095372
      CHANNELS 3 Zrotation Xrotation Yrotation
      JOINT AnkleLeft
      {
        OFFSET 5.842176 -30.277207 7.855479
        CHANNELS 3 Zrotation Xrotation Yrotation
        JOINT FootLeft
        {
          OFFSET -6.668938 -2.924965 -10.522596
          CHANNELS 3 Zrotation Xrotation Yrotation
          End Site
          {
            OFFSET 0 0 0
          }
        }
      }
    }
  }
  JOINT HipRight
  {
    OFFSET 4.847126 1.260285 -7.161035
    CHANNELS 3 Zrotation Xrotation Yrotation
    JOINT KneeRight
    {
      OFFSET 9.273124 -28.609858 3.379091
      CHANNELS 3 Zrotation Xrotation Yrotation
      JOINT AnkleRight
      {
        OFFSET 5.121120 -27.339956 9.198256
        CHANNELS 3 Zrotation Xrotation Yrotation
        JOINT FootRight
        {
          OFFSET -5.397965 -3.407680 -9.364073
          CHANNELS 3 Zrotation Xrotation Yrotation
          End Site
          {
            OFFSET 0 0 0
          }
        }
      }
    }
  }
}
MOTION
Frames: 16
Frame Time: 0.033333
37.645510 70.778383 352.963459 -0.000000 0.000000 37.289783 -0.000000 0.000000 -37.289783 -0.000000 0.000000 0.000000 -0.000000 0.000000 0.000000 0.000000 0.000000 0.000000 -0.000000 0.000000 0.000000 -0.000000 0.000000 0.000000 -0.000000 0.000000 0.000000 -0.000000 0.000000 0.000000 0.000000 0.000000 0.000000 0.000000 0.000000 0.000000 -0.000000 0.000000 0.000000 -0.000000 0.000000 0.000000 -0.000000 0.000000 0.000000 -0.000000 0.000000 0.000000 0.000000 0.000000 0.000000 0.000000 0.000000 0.000000 -0.000000 0.000000 -37.289783 -0.000000 0.000000 0.000000 -0.000000 0.000000 0.000000 0.000000 0.000000 0.000000 -0.000000 0.000000 -37.289783 -0.000000 0.000000 0.000000 -0.000000 0.000000 0.000000 0.000000 0.000000 0.000000
37.531892 70.862585 352.906549 -0.129282 0.026167 38.039388 0.085697 -0.100273 -38.039283 -0.000000 0.000000 0.000000 -0.000000 0.000000 0.000000 0.000000 0.000000 0.000000 -0.731964 -1.685270 -0.081128 1.280487 2.778200 0.023355 0.452603 6.256968 -0.510776 1.154695 -10.014187 -0.460578 0.000000 0.000000 0.000000 0.000000 0.000000 0.000000 -0.000000 0.000000 0.000000 -0.851217 0.514643 0.170128 -0.329144 -2.489381 0.599141 1.200071 1.959301 -0.813064 0.000000 0.000000 0.000000 0.000000 0.000000 0.000000 -1.554255 1.415855 -38.536588 3.779126 -0.666362 0.831143 2.409179 -4.122963 -4.982888 0.000000 0.000000 0.000000 0.085697 -0.100273 -38.039283 -0.000000 0.000000 0.000000 -0.000000 0.000000 0.000000 0.000000 0.000000 0.000000
37.443699 70.922021 352.859318 -0.220224 0.046527 38.604642 0.143069 -0.173766 -38.604336 -0.000000 0.000000 0.000000 -0.000000 0.000000 0.000000 0.000000 0.000000 0.000000 -1.356545 -3.104924 -0.167221 2.407446 5.283581 -0.011671 0.536762 8.769397 -0.787296 1.942109 -15.861924 -0.613964 0.000000 0.000000 0.000000 0.000000 0.000000 0.000000 -1.183009 0.348430 0.233291 -0.486437 0.560260 0.107126 -0.311919 -4.678659 1.035984 1.556253 2.817819 -1.483378 0.000000 0.000000 0.000000 0.000000 0.000000 0.000000 -2.825292 2.623230 -39.488083 6.770459 -1.107867 1.512140 5.214013 -9.292212 -10.165108 0.000000 0.000000 0.000000 0.143069 -0.173766 -38.604336 -0.000000 0.000000 0.000000 -0.000000 0.000000 0.000000 0.000000 0.000000 0.000000
37.380929 70.956689 352.821766 -0.272541 0.061026 38.984903 0.173458 -0.218896 -38.984426 -0.000000 0.000000 0.000000 -0.000000 0.000000 0.000000 0.000000 0.000000 0.000000 -1.870902 -4.254354 -0.249573 3.360248 7.476976 -0.081936 0.505331 9.700767 -0.939873 2.332134 -19.876702 -0.676280 0.000000 0.000000 0.000000 0.000000 0.000000 0.000000 -1.607352 0.484939 0.322282 -0.843730 0.693585 0.186090 0.047897 -6.559193 1.341538 1.756696 3.960437 -2.018722 0.000000 0.000000 0.000000 0.000000 0.000000 0.000000 -3.833928 3.592310 -40.158441 9.054842 -1.380794 2.045020 7.824268 -14.801780 -14.994767 0.000000 0.000000 0.000000 0.173458 -0.218896 -38.984426 -0.000000 0.000000 0.000000 -0.000000 0.000000 0.000000 0.000000 0.000000 0.000000
37.343584 70.966591 352.793892 -0.286086 0.069630 39.181102 0.177771 -0.234715 -39.180564 -0.000000 0.000000 0.000000 -0.000000 0.000000 0.000000 0.000000 0.000000 0.000000 -2.272784 -5.131382 -0.320963 4.116379 9.319367 -0.164246 0.472866 9.839158 -1.018675 2.352259 -22.941272 -0.728719 0.000000 0.000000 0.000000 0.000000 0.000000 0.000000 -1.925557 0.598485 0.392987 -1.264573 0.725616 0.276360 0.752358 -8.128231 1.538637 1.554511 4.943517 -2.389929 0.000000 0.000000 0.000000 0.000000 0.000000 0.000000 -4.597609 4.303140 -40.561107 10.686149 -1.522391 2.433581 9.775243 -19.603946 -18.883764 0.000000 0.000000 0.000000 0.177771 -0.234715 -39.180564 -0.000000 0.000000 0.000000 -0.000000 0.000000 0.000000 0.000000 0.000000 0.000000
37.331663 70.951727 352.775697 -0.260847 0.072326 39.195657 0.156448 -0.220899 -39.195191 -0.000000 0.000000 0.000000 -0.000000 0.000000 0.000000 0.000000 0.000000 0.000000 -2.560501 -5.735303 -0.375765 4.654167 10.773832 -0.237114 0.504511 9.535810 -1.046205 2.020272 -25.464134 -0.809334 0.000000 0.000000 0.000000 0.000000 0.000000 0.000000 -2.140094 0.690228 0.445447 -1.741857 0.656446 0.374493 1.809613 -9.386572 1.641369 0.934115 5.776514 -2.579899 0.000000 0.000000 0.000000 0.000000 0.000000 0.000000 -5.128642 4.743563 -40.708115 11.699353 -1.556328 2.681867 10.875045 -22.755723 -21.405774 0.000000 0.000000 0.000000 0.156448 -0.220899 -39.195191 -0.000000 0.000000 0.000000 -0.000000 0.000000 0.000000 0.000000 0.000000 0.000000
37.365042 70.916419 352.751190 -0.173633 0.089196 39.000779 0.078804 -0.178590 -39.000521 -0.000000 0.000000 0.000000 -0.000000 0.000000 0.000000 0.000000 0.000000 0.000000 -2.673171 -5.946657 -0.398040 4.990330 11.618654 -0.294862 0.251544 9.909322 -1.137748 1.127086 -29.418595 -0.772436 0.000000 0.000000 0.000000 0.000000 0.000000 0.000000 -2.222718 0.805516 0.488869 -2.531595 0.418199 0.515874 3.632443 -10.372173 1.595654 -0.004726 6.426584 -2.543966 0.000000 0.000000 0.000000 0.000000 0.000000 0.000000 -5.845259 5.124410 -40.683104 12.697174 -1.425360 2.944984 11.837548 -25.850311 -24.032616 0.000000 0.000000 0.000000 -0.214685 -0.907720 -39.219260 0.511904 0.471982 0.406923 -0.743502 0.283791 -0.195549 0.000000 0.000000 0.000000
37.439742 70.833483 352.759883 -0.023200 0.077900 38.476114 -0.030306 -0.075420 -38.476118 -0.000000 0.000000 0.000000 -0.000000 0.000000 0.000000 0.000000 0.000000 0.000000 -2.516429 -5.526447 -0.367408 4.555784 11.132341 -0.222436 0.127476 8.387259 -0.997073 1.248636 -29.184622 -0.981035 0.000000 0.000000 0.000000 0.000000 0.000000 0.000000 -2.214757 0.808926 0.488874 -3.218068 0.201556 0.658831 6.024476 -12.143475 1.739386 -3.104247 9.344815 -2.373728 0.000000 0.000000 0.000000 0.000000 0.000000 0.000000 -6.032907 4.946128 -40.182787 12.471327 -1.127358 2.928968 11.272560 -24.255634 -22.634410 0.000000 0.000000 0.000000 -0.030306 -0.075420 -38.476118 0.374947 -1.202425 -0.094763 -0.377018 1.201777 0.102651 0.000000 0.000000 0.000000
37.476599 70.744471 352.820705 0.081734 0.002936 37.945770 -0.066260 0.047944 -37.945744 -0.000000 0.000000 0.000000 -0.000000 0.000000 0.000000 0.000000 0.000000 0.000000 -2.537652 -5.467628 -0.371695 4.351992 11.502853 -0.180414 0.903455 7.217422 -0.876555 1.622071 -27.781008 -1.236188 0.000000 0.000000 0.000000 0.000000 0.000000 0.000000 -2.071102 0.816195 0.473261 -3.665052 -0.208860 0.731469 7.773136 -12.701277 1.722240 -3.775467 9.506803 -2.142667 0.000000 0.000000 0.000000 0.000000 0.000000 0.000000 -5.434172 4.185817 -39.500638 10.935819 -0.671927 2.622053 9.046580 -18.555947 -17.571995 0.000000 0.000000 0.000000 -0.759416 -0.754483 -38.299227 0.046704 1.059315 0.348777 -0.000000 0.000000 0.000000 0.000000 0.000000 0.000000
37.507743 70.675418 352.837209 0.181166 -0.001335 37.637578 -0.142648 0.111689 -37.637437 -0.000000 0.000000 0.000000 -0.000000 0.000000 0.000000 0.000000 0.000000 0.000000 -2.540307 -5.346730 -0.372429 4.055605 11.680071 -0.119598 2.766457 5.042495 -0.530421 -0.091839 -25.658469 -1.814743 0.000000 0.000000 0.000000 0.000000 0.000000 0.000000 -1.947798 0.842562 0.465622 -3.979861 -0.610954 0.770341 9.522007 -12.427493 1.459946 -5.680261 9.749600 -1.589938 0.000000 0.000000 0.000000 0.000000 0.000000 0.000000 -4.828218 3.601516 -39.011723 9.554631 -0.517310 2.309856 5.268337 -10.813463 -12.990253 0.000000 0.000000 0.000000 -2.002245 -1.428652 -38.484354 0.497851 2.362704 0.815275 -0.000000 0.000000 0.000000 0.000000 0.000000 0.000000
37.523854 70.616070 352.817120 0.251634 0.038300 37.681168 -0.222561 0.123504 -37.681012 -0.000000 0.000000 0.000000 -0.000000 0.000000 0.000000 0.000000 0.000000 0.000000 -2.522379 -5.175016 -0.369248 3.706761 11.640419 -0.050272 4.751772 4.072292 -0.252824 -0.778497 -22.051773 -2.223982 0.000000 0.000000 0.000000 0.000000 0.000000 0.000000 -1.786955 0.993019 0.488650 -4.095389 -1.021914 0.721126 11.119958 -10.556522 0.694795 -7.703331 5.974513 -0.631972 0.000000 0.000000 0.000000 0.000000 0.000000 0.000000 -3.865108 2.646853 -38.788526 7.517719 -0.135818 1.875685 4.331344 -8.552142 -11.235461 0.000000 0.000000 0.000000 -2.789080 -1.859701 -38.832949 0.757602 3.153501 1.092186 -0.000000 0.000000 0.000000 0.000000 0.000000 0.000000
37.498916 70.592069 352.784844 0.277216 0.063559 37.916651 -0.257755 0.120211 -37.916534 -0.000000 0.000000 0.000000 -0.000000 0.000000 0.000000 0.000000 0.000000 0.000000 -2.491634 -4.986390 -0.363687 3.358857 11.458384 0.015501 6.580185 2.846451 0.080869 -2.862646 -17.618119 -2.349764 0.000000 0.000000 0.000000 0.000000 0.000000 0.000000 -1.600371 1.117065 0.500511 -4.143797 -1.249514 0.667876 12.361077 -9.765838 0.271680 -9.851590 4.807346 -0.015596 0.000000 0.000000 0.000000 0.000000 0.000000 0.000000 -3.316944 2.300547 -38.854879 6.608272 -0.088628 1.659210 5.207342 -10.280775 -9.753291 0.000000 0.000000 0.000000 -3.300755 -2.133216 -39.271337 0.603277 4.801092 1.407586 0.103130 -1.316308 0.711106 0.000000 0.000000 0.000000
37.440054 70.609259 352.744093 0.266888 0.061261 38.425497 -0.247158 0.117877 -38.425385 -0.000000 0.000000 0.000000 -0.000000 0.000000 0.000000 0.000000 0.000000 0.000000 -2.449158 -4.798507 -0.355981 2.963420 11.095562 0.084231 9.487584 1.078180 0.665008 -3.611752 -3.122241 -2.779929 0.000000 0.000000 0.000000 0.000000 0.000000 0.000000 -1.384180 1.224735 0.503600 -3.980142 -1.279598 0.578682 13.224160 -8.196481 -0.378733 -11.038222 2.434184 0.626646 0.000000 0.000000 0.000000 0.000000 0.000000 0.000000 -2.750202 1.953418 -39.203849 5.710848 -0.038562 1.444653 4.334070 -8.335118 -9.689956 0.000000 0.000000 0.000000 -2.922341 -1.933580 -39.623448 0.301398 4.060164 1.162990 -0.797790 1.646410 -0.414094 0.000000 0.000000 0.000000
37.328979 70.657715 352.756386 0.191041 -0.028245 38.685905 -0.131469 0.141458 -38.685695 -0.000000 0.000000 0.000000 -0.000000 0.000000 0.000000 0.000000 0.000000 0.000000 -2.394730 -4.643368 -0.346049 2.900790 10.643704 0.088446 10.828460 1.506577 0.754273 -1.822338 7.916376 -3.783135 0.000000 0.000000 0.000000 0.000000 0.000000 0.000000 -1.072333 1.324658 0.491932 -3.657939 -1.172386 0.453690 13.371478 -7.952916 -0.469749 -12.539728 3.063083 0.900069 0.000000 0.000000 0.000000 0.000000 0.000000 0.000000 -2.175076 1.668165 -39.326599 4.967261 -0.027112 1.260574 4.376304 -7.621224 -11.250581 0.000000 0.000000 0.000000 -3.249770 -2.228683 -40.084993 0.802511 5.420597 1.612062 0.076618 -2.520112 1.011884 0.000000 0.000000 0.000000
37.195702 70.751546 352.789102 0.088946 -0.123625 39.125080 0.009008 0.152031 -39.124996 -0.000000 0.000000 0.000000 -0.000000 0.000000 0.000000 0.000000 0.000000 0.000000 -2.537293 -4.775763 -0.372853 3.183863 10.955962 0.072062 10.826492 0.635119 0.925407 -1.396470 10.140213 -4.111511 0.000000 0.000000 0.000000 0.000000 0.000000 0.000000 -0.786621 1.280682 0.443454 -3.563266 -0.970975 0.424084 14.625472 -8.573249 -0.455514 -13.441931 3.749778 1.320734 0.000000 0.000000 0.000000 0.000000 0.000000 0.000000 -1.808372 1.619620 -39.694047 4.631966 -0.175608 1.147580 4.754965 -7.694434 -12.307790 0.000000 0.000000 0.000000 -3.216062 -2.196063 -40.551809 1.463837 5.862445 1.859199 0.656238 -5.898317 2.514786 0.000000 0.000000 0.000000
37.073175 70.806663 352.941787 -0.015775 -0.340431 38.817334 0.225689 0.255357 -38.817883 -0.000000 0.000000 0.000000 0.829488 -0.542950 -0.124874 0.000000 0.000000 0.000000 -2.500317 -4.558430 -0.366253 3.417797 10.348113 0.036706 10.142777 0.624143 0.863781 -1.465923 9.492223 -3.911020 0.000000 0.000000 0.000000 0.000000 0.000000 0.000000 -0.460213 1.115733 0.357155 -3.563649 -0.675352 0.448886 16.930695 -8.074181 -1.029652 -17.258680 1.969186 2.190866 0.000000 0.000000 0.000000 0.000000 0.000000 0.000000 -1.823507 1.957755 -39.445550 5.103420 -0.397180 1.225456 3.812792 -6.754121 -9.918387 0.000000 0.000000 0.000000 -2.765968 -1.719944 -40.091562 2.323835 5.586464 1.955495 0.887778 -8.407179 3.622860 0.000000 0.000000 0.000000
